<mxfile host="app.diagrams.net" modified="2024-07-07T14:25:54.243Z" agent="Mozilla/5.0 (Macintosh; Intel Mac OS X 10_15_7) AppleWebKit/537.36 (KHTML, like Gecko) Chrome/126.0.0.0 Safari/537.36" version="24.6.4" etag="yE3GyWbde8aN89yZcblS" type="github">
  <diagram name="Page-1" id="k_RK5_mVRMMNi_ymVBb_">
    <mxGraphModel>
      <root>
        <mxCell id="0" />
        <mxCell id="1" parent="0" />
      </root>
    </mxGraphModel>
  </diagram>
</mxfile>
